<svg id="Capa_1" data-name="Capa 1" xmlns="http://www.w3.org/2000/svg" viewBox="0 0 358.14807 358.14807"><defs><style>.cls-1{fill:#00c1f2;}</style></defs><title>affordability</title><path class="cls-1" d="M294.91382,286.18529c0-20.99538-18.51669-38.0801-41.276-38.0801-15.3689,0-27.87387-11.07047-27.87387-24.6754s12.505-24.67539,27.87387-24.67539,27.87387,11.07047,27.87387,24.67539a6.70109,6.70109,0,1,0,13.40217,0c0-17.55359-12.90542-32.75268-31.38409-36.96747l-3.19087-.72232v-8.89591a6.70235,6.70235,0,0,0-13.4047,0v8.89338l-3.19087.72739c-18.47613,4.20972-31.38155,19.41134-31.38155,36.96493,0,20.99792,18.51669,38.0801,41.276,38.0801,15.3689,0,27.87387,11.07048,27.87387,24.6754s-12.505,24.67539-27.87387,24.67539-27.87387-11.07047-27.87387-24.67539a6.70109,6.70109,0,0,0-13.40217,0c0,17.54852,12.90542,32.75015,31.38409,36.96747l3.18833.71472v7.948a6.70235,6.70235,0,1,0,13.4047,0v-7.948l3.201-.71979C282.0084,318.93544,294.91382,303.73381,294.91382,286.18529Z" transform="translate(-75.14667 -76.92597)"/><path class="cls-1" d="M368.52436,181.951a136.67171,136.67171,0,0,0-55.82885-49.40908,6.65353,6.65353,0,0,0-2.89941-.66656,6.73584,6.73584,0,0,0-2.22524.3827,6.70516,6.70516,0,0,0-.68431,12.36811A123.04734,123.04734,0,0,1,362.30482,313.1721a6.70826,6.70826,0,0,0,2.76762,9.06319,6.87411,6.87411,0,0,0,9.06826-2.77269,136.52132,136.52132,0,0,0-5.61634-137.5116Z" transform="translate(-75.14667 -76.92597)"/><path class="cls-1" d="M203.6255,375.32186a6.70725,6.70725,0,0,0-3.13765-8.94153,123.04874,123.04874,0,0,1-55.41573-168.54594,6.71275,6.71275,0,0,0-5.90527-9.85647,6.79709,6.79709,0,0,0-1.97433.29907,6.64155,6.64155,0,0,0-3.95374,3.2593,136.42788,136.42788,0,0,0,61.44265,186.92829A6.86075,6.86075,0,0,0,203.6255,375.32186Z" transform="translate(-75.14667 -76.92597)"/><path class="cls-1" d="M237.4832,378.45444l-.65135-.00507a6.70367,6.70367,0,0,0-.05323,13.40724h.70965a6.70109,6.70109,0,0,0-.00507-13.40217Z" transform="translate(-75.14667 -76.92597)"/><path class="cls-1" d="M254.22324,76.926c-98.74214,0-179.07657,80.33443-179.07657,179.07656,0,98.73961,80.33443,179.0715,179.07657,179.0715,98.7396,0,179.0715-80.33189,179.0715-179.0715C433.29474,157.2604,352.96284,76.926,254.22324,76.926ZM372.13341,373.91271a166.753,166.753,0,1,1,48.83884-117.91018A165.6754,165.6754,0,0,1,372.13341,373.91271Z" transform="translate(-75.14667 -76.92597)"/><path class="cls-1" d="M270.59831,119.14735l-.71471-.00253a6.70235,6.70235,0,0,0,.01014,13.4047l.63868.00253a6.70243,6.70243,0,1,0,.06589-13.4047Z" transform="translate(-75.14667 -76.92597)"/></svg>