<?xml version="1.0" encoding="utf-8"?>
<!-- Generator: Adobe Illustrator 21.1.0, SVG Export Plug-In . SVG Version: 6.00 Build 0)  -->
<svg version="1.1" id="Layer_1" xmlns="http://www.w3.org/2000/svg" xmlns:xlink="http://www.w3.org/1999/xlink" x="0px" y="0px"
	 viewBox="0 0 36.6 36.6" style="enable-background:new 0 0 36.6 36.6;" xml:space="preserve">
<style type="text/css">
	.st0{fill:#404041;}
</style>
<g id="Group_962" transform="translate(-669.626 1133.875)">
	<g id="Line_19">
		<path class="st0" d="M704.8-1097.7c-0.3,0-0.5-0.1-0.7-0.3l-33.7-33.7c-0.4-0.4-0.4-1,0-1.4s1-0.4,1.4,0l33.7,33.7
			c0.4,0.4,0.4,1,0,1.4C705.3-1097.8,705-1097.7,704.8-1097.7z"/>
	</g>
	<g id="Line_20">
		<path class="st0" d="M671-1097.7c-0.3,0-0.5-0.1-0.7-0.3c-0.4-0.4-0.4-1,0-1.4l33.7-33.7c0.4-0.4,1-0.4,1.4,0s0.4,1,0,1.4
			l-33.7,33.7C671.6-1097.8,671.3-1097.7,671-1097.7z"/>
	</g>
</g>
</svg>
