<svg id="Capa_1" data-name="Capa 1" xmlns="http://www.w3.org/2000/svg" viewBox="0 0 496 424"><defs><style>.cls-1{fill:#00c1f2;}</style></defs><title>comprehensive dentistry icon</title><path class="cls-1" d="M112,158.68V156H96v2.68c0,4.584.12,9.168.352,13.728l15.984-.816C112.12,167.296,112,163,112,158.68Z" transform="translate(0 -36)"/><path class="cls-1" d="M113.608,187.088l-15.896,1.816a267.54184,267.54184,0,0,0,40.616,113.88l13.456-8.656A251.65044,251.65044,0,0,1,113.608,187.088Z" transform="translate(0 -36)"/><path class="cls-1" d="M294.888,77.696a84.007,84.007,0,0,1-93.768.008l-8.952,13.264A100.02008,100.02008,0,0,0,303.84,90.96Z" transform="translate(0 -36)"/><path class="cls-1" d="M72,308H56A56.07178,56.07178,0,0,1,0,364v16a56.07178,56.07178,0,0,1,56,56H72a56.07178,56.07178,0,0,1,56-56V364A56.07178,56.07178,0,0,1,72,308Zm-8,95.16A72.35219,72.35219,0,0,0,32.84,372,72.35219,72.35219,0,0,0,64,340.84,72.35235,72.35235,0,0,0,95.16,372,72.35219,72.35219,0,0,0,64,403.16Z" transform="translate(0 -36)"/><path class="cls-1" d="M440,100H424.68c-15.152-37.688-52.24-64-94.264-64-19.84,0-38.496,5.368-53.952,15.512a52.17615,52.17615,0,0,1-56.928,0C204.088,41.368,185.432,36,165.584,36A101.696,101.696,0,0,0,64,137.584V158.68a297.90818,297.90818,0,0,0,47.416,161.416,282.04026,282.04026,0,0,1,36.432,84.24l8.704,34.832a27.48393,27.48393,0,0,0,53.848-2.584L228.344,316.92a19.87256,19.87256,0,0,1,39.304,0l17.944,119.664a27.48878,27.48878,0,0,0,53.856,2.584l8.712-34.832a281.884,281.884,0,0,1,36.44-84.24,300.85276,300.85276,0,0,0,39.368-92.928c-.008.28.032.552.032.832h16a56.07179,56.07179,0,0,1,56-56V156A56.07179,56.07179,0,0,1,440,100ZM371.136,311.44a298.01263,298.01263,0,0,0-38.496,89.024l-8.72,34.832a11.48087,11.48087,0,0,1-22.496-1.088L283.48,314.544a35.87884,35.87884,0,0,0-70.96,0L194.576,434.208a11.49063,11.49063,0,0,1-22.512,1.088l-8.712-34.832a297.6327,297.6327,0,0,0-38.496-89.024A281.98846,281.98846,0,0,1,80,158.68V137.584A85.67987,85.67987,0,0,1,165.584,52c16.712,0,32.328,4.456,45.16,12.888a67.998,67.998,0,0,0,74.504,0C298.088,56.456,313.704,52,330.416,52c42.208,0,78.624,31.448,84.624,72.512l.336,5.208A55.969,55.969,0,0,1,368,156v16a55.91772,55.91772,0,0,1,45.56,23.56A284.24137,284.24137,0,0,1,371.136,311.44ZM432,195.16A72.35219,72.35219,0,0,0,400.84,164,72.35235,72.35235,0,0,0,432,132.84,72.35219,72.35219,0,0,0,463.16,164,72.35219,72.35219,0,0,0,432,195.16Z" transform="translate(0 -36)"/></svg>