<svg id="Capa_1" data-name="Capa 1" xmlns="http://www.w3.org/2000/svg" viewBox="0 0 416 447.78687"><defs><style>.cls-1{fill:#00c1f2;}</style></defs><title>cuality care icon</title><path class="cls-1" d="M275.21094,37.62274a45.29633,45.29633,0,0,1-25.45215,7.7627A45.31233,45.31233,0,0,1,224.311,37.62665l-2.07227-1.39844-7.92334,11.74023,2.07227,1.39844a59.42677,59.42677,0,0,0,33.37109,10.18164,59.42987,59.42987,0,0,0,33.376-10.18554l2.07226-1.39844L277.2832,36.22235Z" transform="translate(-42.8316 -9.02216)"/><path class="cls-1" d="M304.55273,243.00751l4.99024-19.94727a158.91536,158.91536,0,0,1,20.54492-47.49609A173.53354,173.53354,0,0,0,352.375,123.97333h9.835v-2.5A29.6027,29.6027,0,0,1,391.7793,91.904h2.5V77.74091h-2.5A29.60249,29.60249,0,0,1,362.21,48.17255v-2.5h-9.61035A61.28306,61.28306,0,0,0,296.95508,9.02216a58.52548,58.52548,0,0,0-32.26953,9.29492,27.48413,27.48413,0,0,1-29.8545-.002,58.5189,58.5189,0,0,0-32.26855-9.293A60.74162,60.74162,0,0,0,141.88965,69.695V81.77606a173.10694,173.10694,0,0,0,27.55029,93.78809,159.02506,159.02506,0,0,1,20.54053,47.49609l4.98389,19.94531a18.239,18.239,0,0,0,35.73486-1.71386l10.27588-68.52442a8.87991,8.87991,0,0,1,17.563-.00195l10.27539,68.52539a18.24184,18.24184,0,0,0,35.73925,1.7168ZM355.12891,97.68719a43.50227,43.50227,0,0,0-12.86524-12.86425A43.50546,43.50546,0,0,0,355.12891,71.9577a43.50215,43.50215,0,0,0,12.86425,12.86524A43.49884,43.49884,0,0,0,355.12891,97.68719ZM318.47852,77.74091h-2.5V91.904h2.5a29.63251,29.63251,0,0,1,23.47656,11.66211A160.29,160.29,0,0,1,318.1709,167.904h.001a173.1313,173.1313,0,0,0-22.36719,51.72461l-4.9961,19.95313a4.07447,4.07447,0,0,1-7.98339-.39258L272.5498,170.6618a23.04668,23.04668,0,0,0-45.58105,0L216.69189,239.194a4.08012,4.08012,0,0,1-7.99316.38281L203.71,219.63055A172.93868,172.93868,0,0,0,181.34229,167.904a158.987,158.987,0,0,1-25.29-86.12793V69.695A46.56282,46.56282,0,0,1,202.5625,23.18427,44.36414,44.36414,0,0,1,227.05029,30.154a40.65985,40.65985,0,0,0,22.7085,6.77442A40.62853,40.62853,0,0,0,272.46191,30.155a44.39236,44.39236,0,0,1,24.49317-6.9707c22.90332,0,42.64844,16.88281,45.97265,39.28808l.13282,2.05469A29.42263,29.42263,0,0,1,318.47852,77.74091Z" transform="translate(-42.8316 -9.02216)"/><path class="cls-1" d="M431.48761,120.809a27.238,27.238,0,0,0-27.2,24.576l-10.128,100.016a25.68571,25.68571,0,0,0-12.832,6.88l-80.816,75.232a54.33575,54.33575,0,0,0-17.68,39.68v89.616h96V414.633a24.22281,24.22281,0,0,1,7.696-17.552l60.72-61.28a39.79779,39.79779,0,0,0,11.584-28.16V148.153A27.38208,27.38208,0,0,0,431.48761,120.809Zm4.384,203.744-60.52795,61.088a40.06584,40.06584,0,0,0-12.512,28.992v26.176h-64v-73.52a38.225,38.225,0,0,1,12.528-27.968l81.072-75.504a10.58234,10.58234,0,0,1,14.704,0,10.36351,10.36351,0,0,1,3.056,7.36,10.238,10.238,0,0,1-2.784,7.088l-62.416,56.608,10.752,11.84,62.704-56.88a26.3825,26.3825,0,0,0,.016-37.328,25.52886,25.52886,0,0,0-8.368-5.648l10.096-99.84a11.34871,11.34871,0,0,1,22.64,1.136V307.641h.00006A23.88764,23.88764,0,0,1,435.87158,324.553Z" transform="translate(-42.8316 -9.02216)"/><path class="cls-1" d="M201.15161,327.513l-80.816-75.232a25.562,25.562,0,0,0-12.832-6.88L97.37555,145.385a27.34212,27.34212,0,0,0-54.54395,2.768V307.641a39.73289,39.73289,0,0,0,11.584,28.144l60.72,61.28a24.258,24.258,0,0,1,7.696,17.568v42.176h96V367.193A54.30237,54.30237,0,0,0,201.15161,327.513Zm-62.32,113.296V414.633a40.09281,40.09281,0,0,0-12.512-28.992l-60.528-61.088a23.88783,23.88783,0,0,1-6.96-16.912V148.153a11.35044,11.35044,0,0,1,22.64-1.168l10.096,99.84a26.39125,26.39125,0,0,0-8.352,42.97595l62.704,56.88,10.752-11.84-62.416-56.608a10.13777,10.13777,0,0,1-2.784-7.088,10.336,10.336,0,0,1,3.056-7.36,10.58234,10.58234,0,0,1,14.704,0l81.072,75.504a38.22471,38.22471,0,0,1,12.52795,27.968V440.809Z" transform="translate(-42.8316 -9.02216)"/></svg>