<svg id="Layer_1" data-name="Layer 1" xmlns="http://www.w3.org/2000/svg" viewBox="0 0 105.27466 157.93652"><defs><style>.cls-1{fill:#fff;}</style></defs><title>download arrow</title><path class="cls-1" d="M696.95547,374.04377a9.46926,9.46926,0,0,0,6.71777,2.78272c.08447,0,.16846-.00983.25293-.01209.08447.00226.16846.01209.25293.01209a9.4713,9.4713,0,0,0,6.71777-2.78272l42.82129-42.82129a9.5,9.5,0,0,0-13.43554-13.43457l-27.23535,27.23535v-74.623a9.5,9.5,0,0,0-19,0v73.86486L667.5707,317.78791a9.5,9.5,0,1,0-13.43554,13.43457Z" transform="translate(-651.22598 -260.90022)"/><path class="cls-1" d="M746.62148,399.83674H660.726a9.5,9.5,0,0,0,0,19h85.8955a9.5,9.5,0,0,0,0-19Z" transform="translate(-651.22598 -260.90022)"/></svg>