<svg id="Capa_1" data-name="Capa 1" xmlns="http://www.w3.org/2000/svg" viewBox="0 0 336.41423 312.20301"><defs><style>.cls-1{fill:#676767;}</style></defs><title>Fax</title><path class="cls-1" d="M167.572,432.33225v-83.448c-1.57526-.06882-2.7942-.16621-4.0133-.16823-8.24828-.01366-16.50068-.17411-24.74407.02733-17.49838.42755-33.87763-11.426-40.1478-28.41971a46.19627,46.19627,0,0,1-3.06876-16.08895c.01132-32.24316-.12545-64.48708.0615-96.72917.11592-19.98985,13.0064-34.44406,32.45622-38.27977a53.56813,53.56813,0,0,1,9.67073-.85859c9.24675-.11243,18.49571-.04072,27.7438-.05009.49319-.0005.98629-.08074,1.979-.16754.14561-3.929.05145-7.8813.06762-11.82693.0164-3.99911.00364-7.99834.00364-11.99752V132.70244c0-3.966,0-7.93195,0-12.13039H359.88746c.025,5.29094.05917,10.49061.07134,15.69033.0123,5.2489.00273,10.49784.00273,15.74677v16.15428c1.47134.05888,2.79082.15486,4.11051.15755,9.123.01856,18.25063-.16173,27.36813.06672,12.47567.31257,23.05486,5.05447,31.30051,14.53992a35.69026,35.69026,0,0,1,9.10412,23.622c.1869,28.36779.09917,56.73738.11627,85.10628.00307,5.12395-.05134,10.2485.01,15.37172.19013,15.8864-7.32461,27.38984-20.45332,35.52121a40.84263,40.84263,0,0,1-22.43719,6.1888c-9.49239-.1241-18.98765-.029-29.00249-.029-.23685,4.68132-.08331,9.2487-.11046,13.80565-.02751,4.62387-.00606,9.248-.00606,13.87209v55.68425C356.86144,432.82606,173.41415,433.06506,167.572,432.33225ZM347.42155,288.93407h-167.113c-.73069,5.54446-.481,128.60495.22493,131.16866H347.42155ZM180.12086,168.10275H347.58252c-.03243-11.88966.069-23.55271-.0677-35.16866h-167.394Zm203.29488,36.82519H371.37605a80.91681,80.91681,0,0,0,.00712,11.181h12.03257Z" transform="translate(-95.56034 -120.57205)"/><path class="cls-1" d="M191.75964,324.35161v-11.2787c.15451-.1545.23862-.24772.33249-.32982.09109-.07967.18712-.20315.28966-.21258.86767-.07959,1.73733-.19384,2.60637-.19373q69.73353.009,139.46707.05056a5.423,5.423,0,0,1,1.26094.37681v11.36613C332.86169,324.82611,197.32067,325.05819,191.75964,324.35161Z" transform="translate(-95.56034 -120.57205)"/><path class="cls-1" d="M335.77938,348.67834V359.967c-.14531.1453-.22979.23806-.32315.32078-.09082.08045-.18478.20531-.28764.21655a20.63828,20.63828,0,0,1-2.231.19487q-69.921-.00855-139.842-.049a5.52015,5.52015,0,0,1-1.26651-.373V348.91086C194.6646,348.20938,330.059,347.966,335.77938,348.67834Z" transform="translate(-95.56034 -120.57205)"/><path class="cls-1" d="M191.76539,396.3645V385.0673c.13733-.13735.22213-.2297.31505-.313.09057-.08112.18333-.20863.28571-.21993a20.44427,20.44427,0,0,1,2.23085-.19664q69.921.0082,139.8421.04839a5.60321,5.60321,0,0,1,1.27134.36967v11.36643C332.88964,396.82906,197.633,397.08227,191.76539,396.3645Z" transform="translate(-95.56034 -120.57205)"/></svg>