<svg id="Layer_1" data-name="Layer 1" xmlns="http://www.w3.org/2000/svg" viewBox="0 0 408.78491 408.78796"><defs><style>.cls-1{fill:#999;}</style></defs><title>footer linked in</title><path class="cls-1" d="M613.301,103.18949H314.687a55.08512,55.08512,0,0,0-55.085,55.085v298.616a55.08446,55.08446,0,0,0,55.085,55.085H461.962l63.71.002h87.631a55.084,55.084,0,0,0,55.084-55.084v-298.619A55.08589,55.08589,0,0,0,613.301,103.18949ZM381.74514,454.76938H321.193V258.13645h60.55212Zm-30.57226-223.2799c-20.06439-.29462-35.45142-16.34711-35.14728-36.66736.28442-19.00385,16.49493-35.096,35.51916-34.78308,20.90308.34375,35.93451,16.4848,35.91633,36.16436C387.44277,215.91739,370.8511,231.77836,351.17288,231.48948ZM611.92135,449.24454V454.887h-61.536c-.09692-1.781-.26764-3.46527-.26849-5.1496-.0163-31.86865.13171-63.73846-.11621-95.6051-.06055-7.7796-1.27381-15.56555-2.23621-23.31391a27.81862,27.81862,0,0,0-2.34216-7.29376c-3.52735-8.2348-9.51679-13.82532-18.46418-15.37054-11.35076-1.96033-22.4259-1.39508-31.91131,6.26965-7.24622,5.85535-10.341,14.08691-11.70545,22.90167a137.035,137.035,0,0,0-1.64569,20.13117c-.16851,30.51733-.07385,61.03613-.07391,91.55444v5.15088c-3.05475,1.08917-55.81659,1.34747-60.91791.33124V258.28788H478.9266V284.0203q.39588.14181.79169.28369a15.18243,15.18243,0,0,0,1.63141-1.79315c11.47619-17.41889,27.96154-26.46588,48.37811-28.80359A91.16362,91.16362,0,0,1,569.265,257.863c15.76849,5.24634,26.7456,15.795,33.40607,30.93018a94.38648,94.38648,0,0,1,7.7124,31.69763q1.319,19.16922,1.47217,38.41461C612.06112,389.01725,611.92135,419.13138,611.92135,449.24454Z" transform="translate(-259.60202 -103.18949)"/></svg>