<svg id="Layer_1" data-name="Layer 1" xmlns="http://www.w3.org/2000/svg" viewBox="0 0 408.78493 408.78799"><defs><style>.cls-1{fill:#999;}</style></defs><title>footer facebook</title><path class="cls-1" d="M353.701,0H55.087A55.08514,55.08514,0,0,0,.002,55.085V353.701a55.08449,55.08449,0,0,0,55.085,55.085H202.362l.251-146.078H164.662a8.95406,8.95406,0,0,1-8.954-8.92l-.182-47.087a8.95491,8.95491,0,0,1,8.955-8.989h37.882V152.214c0-52.8,32.247-81.55,79.348-81.55h38.65a8.95525,8.95525,0,0,1,8.955,8.955v39.704a8.95549,8.95549,0,0,1-8.95,8.955l-23.719.011c-25.615,0-30.575,12.172-30.575,30.035v39.389h56.285a8.95443,8.95443,0,0,1,8.892,10.009l-5.581,47.087a8.95529,8.95529,0,0,1-8.892,7.901H266.323l-.251,146.078h87.631a55.084,55.084,0,0,0,55.084-55.084V55.085A55.08589,55.08589,0,0,0,353.701,0Z" transform="translate(-0.002)"/></svg>