<svg id="Layer_1" data-name="Layer 1" xmlns="http://www.w3.org/2000/svg" viewBox="0 0 551.034 551.034"><defs><style>.cls-1{fill:#999;}</style></defs><title>footer instagram</title><path class="cls-1" d="M386.878,0H164.156C73.64,0,0,73.64,0,164.156V386.878c0,90.516,73.64,164.156,164.156,164.156H386.878c90.516,0,164.156-73.64,164.156-164.156V164.156C551.033,73.64,477.393,0,386.878,0ZM495.6,386.878A108.72266,108.72266,0,0,1,386.878,495.6H164.156A108.72265,108.72265,0,0,1,55.434,386.878V164.156A108.722,108.722,0,0,1,164.156,55.434H386.878A108.722,108.722,0,0,1,495.6,164.156l0,222.722Z"/><path class="cls-1" d="M275.517,133C196.933,133,133,196.933,133,275.516s63.933,142.517,142.517,142.517S418.034,354.1,418.034,275.516,354.101,133,275.517,133Zm0,229.6A87.083,87.083,0,1,1,362.6,275.517,87.08252,87.08252,0,0,1,275.517,362.6Z"/><circle class="cls-1" cx="418.31" cy="134.07001" r="34.14999"/></svg>