<?xml version="1.0" encoding="utf-8"?>
<!-- Generator: Adobe Illustrator 21.1.0, SVG Export Plug-In . SVG Version: 6.00 Build 0)  -->
<svg version="1.1" id="Layer_1" xmlns="http://www.w3.org/2000/svg" xmlns:xlink="http://www.w3.org/1999/xlink" x="0px" y="0px"
	 viewBox="0 0 24 18" style="enable-background:new 0 0 24 18;" xml:space="preserve">
<style type="text/css">
	.st0{fill:#000;}
</style>
<g>
	<g id="Line_23">
		<path class="st0" d="M23.2,1.6H0.8C0.4,1.6,0,1.3,0,0.8S0.3,0,0.8,0h22.4c0.4,0,0.8,0.3,0.8,0.8S23.6,1.6,23.2,1.6z"/>
	</g>
	<g id="Line_24">
		<path class="st0" d="M23.2,9.8H0.8C0.4,9.8,0,9.5,0,9s0.3-0.8,0.8-0.8h22.4c0.4,0,0.8,0.3,0.8,0.8S23.6,9.8,23.2,9.8z"/>
	</g>
	<g id="Path_520">
		<path class="st0" d="M23.2,18H0.8C0.4,18,0,17.7,0,17.2s0.3-0.8,0.8-0.8h22.4c0.4,0,0.8,0.3,0.8,0.8C24.1,17.7,23.6,18,23.2,18z"/>
	</g>
</g>
</svg>
