<svg id="Capa_1" data-name="Capa 1" xmlns="http://www.w3.org/2000/svg" viewBox="0 0 69 85"><defs><style>.cls-1{fill:#00c1f2;}</style></defs><title>incuranse icon</title><path class="cls-1" d="M253.7661,169.13092l.02375-.00063,1.44414-.07331a.46432.46432,0,0,0,.44151-.48589c-.02-.39658-.02975-.76862-.02975-1.13741v-.24091a.46455.46455,0,0,0-.4658-.46336h-1.44569a.46454.46454,0,0,0-.46579.46336v.24091c0,.41449.01091.83758.03248,1.2575a.46218.46218,0,0,0,.153.32028A.46689.46689,0,0,0,253.7661,169.13092Z" transform="translate(-232.08594 -133.64209)"/><path class="cls-1" d="M257.45989,180.83865a.46762.46762,0,0,0,.35089-.06308l1.2158-.77793a.4619.4619,0,0,0,.13983-.64029,22.07791,22.07791,0,0,1-3.37838-9.4227.46526.46526,0,0,0-.51565-.408l-1.43632.16317a.46391.46391,0,0,0-.40993.51268,24.42826,24.42826,0,0,0,3.74091,10.434A.4652.4652,0,0,0,257.45989,180.83865Z" transform="translate(-232.08594 -133.64209)"/><path class="cls-1" d="M261.139,163.34714a9.54424,9.54424,0,0,0,10.61111-.00072.46194.46194,0,0,0,.12555-.64337l-.809-1.19215a.46754.46754,0,0,0-.64683-.12471,7.15554,7.15554,0,0,1-7.9509.00063.46737.46737,0,0,0-.64665.12489l-.80886,1.19216a.4619.4619,0,0,0,.12554.64327Z" transform="translate(-232.08594 -133.64209)"/><path class="cls-1" d="M256.80205,190.0122l.78639,3.1304a2.952,2.952,0,0,0,5.77785-.27548l1.62137-10.75522a1.3307,1.3307,0,0,1,2.62983-.00045l1.62136,10.75549a2.95261,2.95261,0,0,0,5.77877.276l.78712-3.13076a24.79947,24.79947,0,0,1,3.23236-7.43341,27.23377,27.23377,0,0,0,3.512-8.06492h1.10171a.46454.46454,0,0,0,.46579-.46336,4.58717,4.58717,0,0,1,4.5939-4.57.46455.46455,0,0,0,.4658-.46336v-1.43805a.46455.46455,0,0,0-.4658-.46336,4.58716,4.58716,0,0,1-4.5939-4.57.46455.46455,0,0,0-.46579-.46337h-1.07515A9.74409,9.74409,0,0,0,273.7496,156.33a9.34364,9.34364,0,0,0-5.131,1.47054,4.28264,4.28264,0,0,1-4.63174-.00027,9.33866,9.33866,0,0,0-5.13038-1.47027,9.63,9.63,0,0,0-9.64423,9.59383V167.82a27.13722,27.13722,0,0,0,4.35809,14.75886A24.8182,24.8182,0,0,1,256.80205,190.0122ZM282.92794,166.408a6.915,6.915,0,0,0,1.90029,1.89019,6.91481,6.91481,0,0,0-1.90029,1.89018,6.91311,6.91311,0,0,0-1.90012-1.89018A6.91314,6.91314,0,0,0,282.92794,166.408Zm-31.33852-.48409a7.25639,7.25639,0,0,1,7.267-7.22906,6.95606,6.95606,0,0,1,3.82442,1.0822,6.63863,6.63863,0,0,0,7.2432.00018,6.962,6.962,0,0,1,3.82552-1.08238,7.26092,7.26092,0,0,1,7.18234,6.10288l.01928.29557a4.57794,4.57794,0,0,1-3.80587,2.0225.46454.46454,0,0,0-.46579.46336v1.43805a.46454.46454,0,0,0,.46579.46336,4.61259,4.61259,0,0,1,3.62938,1.77914,25.01029,25.01029,0,0,1-3.73782,10.04009v-.00009a27.176,27.176,0,0,0-3.53822,8.13949l-.78821,3.13167a.572.572,0,0,1-1.11973-.05484l-1.62136-10.75549a3.71047,3.71047,0,0,0-7.33272.00009l-1.62155,10.7563a.573.573,0,0,1-1.12136.05322l-.78712-3.13058a27.13688,27.13688,0,0,0-3.53831-8.13977A24.78921,24.78921,0,0,1,251.58942,167.82Z" transform="translate(-232.08594 -133.64209)"/><path class="cls-1" d="M266.57813,218.64209a1.00494,1.00494,0,0,1-.56446-.17236l-22.00293-14.91944c-6.687-4.53515-11.9248-14.36914-11.9248-22.38818V150.92627a.9971.9971,0,0,1,.57715-.87793l33.49316-16.30518a1.01016,1.01016,0,0,1,.88086,0l33.4707,16.3462a1.00446,1.00446,0,0,1,.57813.89111v30.18164c0,8.019-5.23926,17.85352-11.92676,22.38965L267.1416,218.47021A1.00275,1.00275,0,0,1,266.57813,218.64209Zm-32.51368-67.104v29.624c0,7.436,4.86231,16.55859,11.06934,20.76807l21.46484,14.541,21.44434-14.54c6.2041-4.20849,11.06445-13.33105,11.06445-20.769V151.58105l-32.52051-15.86328Z" transform="translate(-232.08594 -133.64209)"/><path class="cls-1" d="M266.582,211.27881a1.00349,1.00349,0,0,1-.56152-.17188l-18.5503-12.58154c-5.09521-3.45654-9.24072-11.2456-9.24072-17.36328V154.7207a.99518.99518,0,0,1,.5625-.87939l27.35547-13.32324a1.01973,1.01973,0,0,1,.43945-.10059,1.00791,1.00791,0,0,1,.44043.10156l27.35059,13.36084a.99882.99882,0,0,1,.56445.88526v26.397c0,6.11816-4.14648,13.90771-9.24218,17.36328l-18.55665,12.582A1.00218,1.00218,0,0,1,266.582,211.27881ZM240.208,155.332v25.83008c0,5.35791,3.917,12.71387,8.38183,15.7417l18.002,12.2041L284.584,196.9043c4.46387-3.02735,8.37989-10.38379,8.37989-15.74219v-25.791L266.583,142.49365Z" transform="translate(-232.08594 -133.64209)"/></svg>