<svg id="Layer_1" data-name="Layer 1" xmlns="http://www.w3.org/2000/svg" viewBox="0 0 408.78491 408.78796"><defs><style>.cls-1{fill:#475993;}</style></defs><title>linked in icon</title><path class="cls-1" d="M695.15362,200.2h-298.614a55.08513,55.08513,0,0,0-55.085,55.085V553.901a55.08445,55.08445,0,0,0,55.085,55.085h147.275l63.71.002h87.631a55.08405,55.08405,0,0,0,55.084-55.084V255.285A55.08589,55.08589,0,0,0,695.15362,200.2ZM463.59777,551.77991H403.04565V355.147h60.55212ZM433.02551,328.5c-20.06439-.29461-35.45142-16.34711-35.14728-36.66736.28442-19.00384,16.49494-35.09594,35.51917-34.78308,20.90307.34375,35.93451,16.4848,35.91632,36.16437C469.29541,312.92792,452.70373,328.78888,433.02551,328.5ZM693.774,546.25507v5.64245H632.238c-.09692-1.781-.26764-3.46527-.26849-5.14959-.0163-31.86866.13171-63.73847-.11621-95.60511-.06055-7.7796-1.27381-15.56555-2.23621-23.3139a27.81851,27.81851,0,0,0-2.34216-7.29376c-3.52735-8.2348-9.51679-13.82532-18.46417-15.37055-11.35077-1.96032-22.42591-1.39508-31.91132,6.26966-7.24622,5.85534-10.341,14.08691-11.70544,22.90167a137.03346,137.03346,0,0,0-1.6457,20.13116c-.16851,30.51734-.07385,61.03614-.07391,91.55445v5.15088c-3.05475,1.08917-55.81659,1.34747-60.91791.33123V355.2984h58.22278v25.73242q.39588.14182.79169.2837a15.18173,15.18173,0,0,0,1.63141-1.79316c11.47619-17.41888,27.96155-26.46588,48.37811-28.80358a91.16362,91.16362,0,0,1,39.53717,4.15576c15.76849,5.24633,26.74561,15.795,33.40607,30.93017a94.38654,94.38654,0,0,1,7.7124,31.69763q1.319,19.16922,1.47217,38.41462C693.91375,486.02777,693.774,516.14191,693.774,546.25507Z" transform="translate(-341.45465 -200.20001)"/></svg>