<svg id="Layer_1" data-name="Layer 1" xmlns="http://www.w3.org/2000/svg" viewBox="0 0 494.45806 713.27557"><defs><style>.cls-1{fill:#676767;}</style></defs><title>location</title><path class="cls-1" d="M1493.26994,686.23019c16.17017,25.1347,32.35816,50.29687,48.85572,75.94012,2.27648-3.47107,4.20239-6.35773,6.07861-9.27624,13.32727-20.73078,26.69079-41.4386,39.91284-62.23633a8.527,8.527,0,0,1,3.36072-3.317l18.00638-29.39335c-.54-.08856.51449-.04226-.13773-.138,1.25623-2.06976,2.22693-3.711,3.23718-5.32758,35.295-56.47784,70.74268-112.8612,105.81812-169.47516,13.75732-22.20532,26.4812-45.04852,40.04468-67.37713,12.79858-21.06952,20.48217-43.97077,25.55444-67.88312A247.3604,247.3604,0,0,0,1635.62443,67.57687a243.23673,243.23673,0,0,0-79.50488-17.89722,33.9774,33.9774,0,0,1-4.33008-.78491h-19a26.74708,26.74708,0,0,1-3.83349.75976c-46.92237,2.52027-89.844,17.01953-128.13721,44.16724-54.188,38.416-88.12646,90.36255-101.21472,155.59546-8.192,40.8302-5.31177,81.11383,6.48767,120.99273,5.49121,18.55848,13.96338,35.57,23.864,52.02625,4.97669,8.272,9.635,16.73578,14.62452,24.99982,14.62768,24.22729,29.11889,48.5415,44.08374,72.55975,27.82885,44.66437,55.95581,89.14294,83.95483,133.70136.69922,1.11285,1.35193,2.25488,2.41626,4.0357-.30664.03735-.58533.07251-.87671.10877l17.63794,28.5147C1492.27751,686.31466,1492.76164,686.27273,1493.26994,686.23019Zm-59.70837-390.17981c.42993-59.544,48.95691-108.12171,108.8612-108.08557,59.66456.03588,108.43482,48.89447,108.36646,108.56225-.06909,60.09522-48.77612,108.964-108.58814,108.94891C1479.00139,405.02987,1433.15007,353.04037,1433.56157,296.05038Z" transform="translate(-1294.94295 -48.89474)"/></svg>