<svg id="Layer_1" data-name="Layer 1" xmlns="http://www.w3.org/2000/svg" viewBox="0 0 448.1838 320.06668"><defs><style>.cls-1{fill:#676767;}</style></defs><title>mail</title><path class="cls-1" d="M1121.35859,330.085c6.90876-1.11268,12.49263-2.77311,18.08261-2.794,53.14353-.19838,106.28809-.11876,159.43236-.11859q109.45383.00037,218.9077-.02449c6.9263-.00393,13.6163.66421,20.232,4.80156-1.21838,1.27825-2.25064,2.464-3.38745,3.53912Q1441.853,423.23171,1349.05189,510.945c-11.69986,11.05319-26.53938,11.12121-38.00171.211q-92.67358-88.2102-185.28989-176.48056C1124.70794,333.67278,1123.7431,332.57834,1121.35859,330.085Z" transform="translate(-1105.33569 -327.14791)"/><path class="cls-1" d="M1391.72911,504.79412l145.04882,138.16943c-5.92563,3.72028-11.95138,4.25232-18.14132,4.24979q-85.2395-.03479-170.479-.02326-104.2372-.00246-208.47439.02451c-6.445.00345-12.548-1.03229-18.82906-4.90262,48.85671-46.18368,97.47275-92.13983,146.38617-138.3771,1.32695,1.17153,2.57217,2.20367,3.74258,3.31466,11.96529,11.35776,23.88042,22.76868,35.88488,34.08484,14.0316,13.22708,32.09076,13.24542,46.08856.05548,11.64322-10.97125,23.20309-22.03094,34.80893-33.042C1388.95228,507.22173,1390.20109,506.16073,1391.72911,504.79412Z" transform="translate(-1105.33569 -327.14791)"/><path class="cls-1" d="M1107.16651,623.58159c-2.45212-6.52676-2.37692-266.615-.15832-272.455l143.26446,136.5169a34.06889,34.06889,0,0,0-5.01963,3.3093q-62.5188,59.34444-124.92381,118.8085C1115.78381,614.0953,1111.64617,618.857,1107.16651,623.58159Z" transform="translate(-1105.33569 -327.14791)"/><path class="cls-1" d="M1552.47837,623.60708,1409.72843,487.56289c47.48362-45.6534,95.56482-90.412,142.77338-136.38356a66.19734,66.19734,0,0,1,.97583,8.39215q.08478,127.44266-.00339,254.88536A78.45461,78.45461,0,0,1,1552.47837,623.60708Z" transform="translate(-1105.33569 -327.14791)"/></svg>