<svg id="Layer_1" data-name="Layer 1" xmlns="http://www.w3.org/2000/svg" viewBox="0 0 626.02105 590.38244"><defs><style>.cls-1{fill:#c3cbd0;}.cls-2{fill:#fd0402;}.cls-3{fill:#fd1e1b;}.cls-4{fill:#fff;}</style></defs><title>PDF icon</title><path class="cls-1" d="M725.17772,579.02756a33.666,33.666,0,0,1-33.666-33.666v-450a33.667,33.667,0,0,1,33.667-33.667h250c20.78906,0,50.77246,12.41944,65.47266,27.12012l74.4082,74.40674c14.7002,14.70019,27.11914,44.6831,27.11816,65.47265V545.36154a33.666,33.666,0,0,1-33.666,33.666Zm.001-499.999a16.333,16.333,0,0,0-16.333,16.333v450a16.333,16.333,0,0,0,16.333,16.333h383.334a16.333,16.333,0,0,0,16.333-16.333v-316.667a53.27055,53.27055,0,0,0-1.02734-9.82812l-1.23731-6.50489H1013.8037a22.291,22.291,0,0,1-22.291-22.291V81.2927l-6.50684-1.23633a53.28919,53.28919,0,0,0-9.82715-1.02783Zm283.667,98.10282a17.8962,17.8962,0,0,0,17.8962,17.8962h90.57646L1108.54,182.449a51.82373,51.82373,0,0,0-5.73828-6.97266L1028.39647,101.071a51.81851,51.81851,0,0,0-6.97265-5.73682l-12.57813-8.77686Z" transform="translate(-605.02105 -61.69455)"/><path class="cls-2" d="M1056.48974,359.09237c-.31815-2.47681-2.29749-5.54014-4.43818-7.63186-6.01488-5.926-19.35421-9.06457-39.65274-9.33107A328.59014,328.59014,0,0,0,964.725,345.6233c-7.78908-4.494-15.81614-9.385-22.1186-15.27446-16.95177-15.82978-31.10176-37.80211-39.91924-61.96347.57474-2.25679,1.06373-4.24027,1.51906-6.26444,0,0,9.5484-54.23512,7.02077-72.57208a21.18525,21.18525,0,0,0-1.23789-5.199l-.82926-2.13078c-2.597-5.99008-7.6895-12.33737-15.67339-11.99133l-4.682-.14895-.1285-.00248c-8.90281,0-16.15888,4.55346-18.06364,11.35937-5.78969,21.34595.18428,53.27965,11.01044,94.63986l-2.77121,6.7367c-7.75188,18.897-17.46617,37.929-26.0374,54.719l-1.11435,2.18408C842.68279,357.36176,834.501,372.342,827.084,385.03247l-7.65809,4.049c-.55759.29439-13.68207,7.23583-16.76047,9.09824-26.11529,15.59282-43.42074,33.29441-46.29194,47.34121-.91374,4.48229-.23365,10.21775,4.413,12.874l7.40668,3.7275a22.31747,22.31747,0,0,0,10.07231,2.42517c18.60015,0,40.19421-23.17045,69.94136-75.08453a696.70744,696.70744,0,0,1,107.71951-25.6015c26.11694,14.70592,58.23864,24.91954,78.51259,24.91954a36.6931,36.6931,0,0,0,9.22425-1.01043,15.6891,15.6891,0,0,0,9.16352-6.2568C1056.75975,375.5948,1057.5576,367.44089,1056.48974,359.09237ZM774.23342,450.433c3.39139-9.27426,16.81811-27.60873,36.66979-43.87679,1.248-1.01209,4.32228-3.8933,7.13749-6.56823C797.28106,433.09788,783.379,446.29435,774.23342,450.433ZM891.81369,179.66784c5.97914,0,9.38,15.07076,9.66265,29.19968.28178,14.12975-3.02263,24.04629-7.12159,31.38355-3.3949-10.86334-5.03564-27.98617-5.03564-39.18213C889.31911,201.06894,889.06955,179.66784,891.81369,179.66784ZM856.739,372.62135c4.16486-7.45585,8.4983-15.31867,12.92636-23.65707A450.51829,450.51829,0,0,0,892.35351,299.45a163.59816,163.59816,0,0,0,37.45607,46.50265q2.76541,2.34057,5.8496,4.69374C905.59719,356.59428,879.615,363.82845,856.739,372.62135Zm189.5363-1.69322c-1.83121,1.14472-7.07572,1.80643-10.44954,1.80643-10.88793,0-24.35948-4.978-43.24473-13.07448,7.25607-.53734,13.90973-.80984,19.87626-.80984,10.921,0,14.156-.04731,24.83484,2.67659C1047.97119,364.25072,1048.10568,369.78321,1046.27529,370.92813Z" transform="translate(-605.02105 -61.69455)"/><rect class="cls-3" y="152.95861" width="227.36842" height="113.20453" rx="15.71832"/><path class="cls-4" d="M662.03809,276.47949v19.95215h-11.668V239.80371h22.09179a25.562,25.562,0,0,1,11.22071,2.334,17.20208,17.20208,0,0,1,7.44726,6.63085,18.49035,18.49035,0,0,1,2.60645,9.78125q0,8.32471-5.69824,13.127-5.69825,4.80323-15.77051,4.80273Zm0-9.45019h10.42382q4.62746,0,7.0586-2.17871a7.92025,7.92025,0,0,0,2.43066-6.22266,9.34032,9.34032,0,0,0-2.45019-6.72852,9.15569,9.15569,0,0,0-6.76758-2.64453H662.03809Z" transform="translate(-605.02105 -61.69455)"/><path class="cls-4" d="M701.74707,296.43164V239.80371h17.42481a26.4691,26.4691,0,0,1,13.35937,3.36426,23.47015,23.47015,0,0,1,9.19824,9.56738,29.52442,29.52442,0,0,1,3.30567,14.09863v2.60645a29.60316,29.60316,0,0,1-3.24707,14.04,23.26094,23.26094,0,0,1-9.16016,9.5293,26.66316,26.66316,0,0,1-13.33984,3.42187Zm11.668-47.17676v37.80371h5.63965q6.8452,0,10.46191-4.47265,3.61816-4.47217,3.69531-12.7959V266.7959q0-8.63526-3.57812-13.08789-3.57861-4.45312-10.46191-4.45313Z" transform="translate(-605.02105 -61.69455)"/><path class="cls-4" d="M787.584,273.291H765.18164v23.14062h-11.668V239.80371h36.8711v9.45117H765.18164v14.624H787.584Z" transform="translate(-605.02105 -61.69455)"/><path class="cls-2" d="M1223.70041,525.47952h-43.27775V418.48992a16.75361,16.75361,0,0,0-16.75352-16.75362h-99.06456a16.7537,16.7537,0,0,0-16.75363,16.75362v106.9896h-43.27764a7.327,7.327,0,0,0-5.23643,12.452l51.30634,52.42075,58.25726,59.52272a7.327,7.327,0,0,0,10.47265,0l58.25736-59.52272,51.30624-52.42075A7.327,7.327,0,0,0,1223.70041,525.47952Z" transform="translate(-605.02105 -61.69455)"/></svg>