<svg id="Layer_1" data-name="Layer 1" xmlns="http://www.w3.org/2000/svg" viewBox="0 0 189.75801 182.33866"><defs><style>.cls-1{fill:#676767;}</style></defs><title>phone icon</title><path class="cls-1" d="M1596.56646,561.15539a56.60759,56.60759,0,0,1-8.1612.492c-2.75286-.001-5.5421-.28421-8.35328-.49806a119.62258,119.62258,0,0,1-37.2355-11.9509c-23.99013-12.065-45.65573-27.3449-63.89912-47.14641-13.66361-14.8306-24.3573-31.52554-30.03026-51.10149-4.01372-13.85032-5.16744-27.7818-.65516-41.75078,4.08415-12.6436,11.91933-22.12232,24.09586-27.77085,7.20231-3.34106,14.21363-2.59046,20.98895,1.24782a13.62,13.62,0,0,1,6.67373,8.38558c4.00284,14.56894,7.79238,29.18161,10.193,44.13382,1.36229,8.48522-1.18629,14.60107-9.16769,18.28269a27.759,27.759,0,0,0-6.99665,4.22852c2.12661,5.03751,5.34815,9.46,8.47676,13.91226a132.34871,132.34871,0,0,0,50.86721,43.111c3.23451,1.58986,3.28436,1.56435,5.226-1.62411,1.81148-2.97475,3.59714-5.96707,5.31409-8.997,2.11362-3.72995,5.3509-5.09935,9.52271-5.17449,8.06222-.14514,15.8934,1.38152,23.72131,2.9526,7.80931,1.56733,15.63712,3.08306,23.37306,4.96562,11.44744,2.78572,17.36342,13.97264,13.26545,25.12024-4.96061,13.49418-14.63276,22.31038-28.0802,27.022A85.83274,85.83274,0,0,1,1596.56646,561.15539Z" transform="translate(-1445.3267 -379.30872)"/></svg>