<svg id="Layer_1" data-name="Layer 1" xmlns="http://www.w3.org/2000/svg" viewBox="0 0 215.48863 215.75332"><defs><style>.cls-1{fill:#676767;}</style></defs><title>working hours</title><path class="cls-1" d="M1302.11891,459.43746c.59759,58.25934-47.65229,107.01346-106.04563,107.86108-60.5173.87845-109.36609-49.11139-109.43564-107.60666-.06738-56.70208,45.46006-107.8923,107.45621-108.13439C1255.7758,351.31664,1302.79945,402.08126,1302.11891,459.43746ZM1194.2757,539.48214a79.635,79.635,0,0,0,80.29682-79.6976c.11218-45.842-36.06772-80.17121-79.67957-80.40992-43.9935-.24078-80.52252,34.27546-80.55063,80.041A79.57133,79.57133,0,0,0,1194.2757,539.48214Z" transform="translate(-1086.63757 -351.55663)"/><path class="cls-1" d="M1180.93638,457.06386c.90695-12.73214,1.8732-26.16058,2.815-39.59069.33728-4.80933.41471-9.64631.97406-14.42817.62348-5.33035,4.64209-8.83249,9.23725-8.5336,5.133.33387,8.6304,4.03882,8.97589,9.58762.74405,11.9483,1.45111,23.89889,2.19125,35.84747.25693,4.14768.625,8.28916.83325,12.43894a12.46593,12.46593,0,0,0,3.18982,7.65149q9.98411,11.81935,19.82877,23.75631a24.21962,24.21962,0,0,1,2.88983,4.04218,8.74723,8.74723,0,0,1-1.95654,10.89438,8.46531,8.46531,0,0,1-11.00925.83355c-3.14423-2.15927-6.028-4.70816-8.95819-7.16668-7.648-6.41693-15.1312-13.038-22.9314-19.26267-4.60812-3.67737-6.71914-8.07391-6.08688-13.87C1180.98307,458.77071,1180.93638,458.2665,1180.93638,457.06386Z" transform="translate(-1086.63757 -351.55663)"/></svg>