<svg id="Layer_1" data-name="Layer 1" xmlns="http://www.w3.org/2000/svg" viewBox="0 0 390.49149 395.62589"><defs><style>.cls-1{fill:#999;}</style></defs><title>footer logo</title><path class="cls-1" d="M224.48724,104.00011h60.505v127.147s.196,37.266,39.019,37.266,38.786-37.266,38.786-37.266v-127.147h41.889v184.498s-19.031,33.52-80.505,33.52c-75.014,0-99.694-44.86-99.694-91.111Z" transform="translate(-224.48724 -104.00011)"/><path class="cls-1" d="M502.12372,104.00021h-91.511v214.709c0-.152,91.511.235,91.511.235s112.855-2.243,112.855-108.659c0-106.417-112.855-106.285-112.855-106.285m39.072,131.373c0,18.248-15.424,31.982-20.104,31.982-9.332,0-4.402-12.71-4.402-20.352,0-19.923-11.226-26.719-11.52-26.894-.293.175-11.519,6.971-11.519,26.894,0,7.642,4.929,20.352-4.403,20.352-4.68,0-20.104-13.734-20.104-31.982,0-8.308,1.412-12.794,1.412-22.015s-8.319-20.918-8.722-36.053c-.283-10.61,5.344-15.618,9.498-18.11,4.669-2.801,17.09-8.2,33.384.568a.963.963,0,0,0,.909,0c16.294-8.768,28.715-3.369,33.383-.568,4.154,2.492,9.781,7.5,9.499,18.11-.403,15.135-8.723,26.832-8.723,36.053s1.412,13.707,1.412,22.015" transform="translate(-224.48724 -104.00011)"/><path class="cls-1" d="M224.48724,397.17476V350.53162h5.97488v46.64314c0,12.224,11.33789,22.23118,23.89747,22.23118,12.67284,0,23.89853-10.11412,23.89853-22.23118V350.53162h5.97381v46.64314c0,15.86989-13.35244,28.30771-29.87234,28.30771-16.63317,0-29.87235-12.65272-29.87235-28.30771" transform="translate(-224.48724 -104.00011)"/><polygon class="cls-1" points="140.887 246.474 140.887 319.626 136.453 319.626 85.707 255.319 85.707 319.626 79.846 319.626 79.846 246.474 85.447 246.474 134.819 308.737 134.907 246.474 140.887 246.474"/><rect class="cls-1" x="162.5814" y="246.29818" width="5.96538" height="73.32797"/><polygon class="cls-1" points="241.562 251.597 216.482 251.597 216.482 319.343 210.714 319.343 210.714 251.597 185.169 251.597 185.169 246.532 241.562 246.532 241.562 251.597"/><polygon class="cls-1" points="263.861 251.954 263.861 280.209 305.37 280.209 305.37 285.168 263.861 285.168 263.861 313.887 310.475 313.887 310.475 319.414 257.74 319.414 257.74 246.531 310.012 246.531 310.012 251.954 263.861 251.954"/><path class="cls-1" d="M614.97873,386.90479c0,23.60529-19.23848,36.26966-39.92721,36.26966h-22.951v-72.643h22.951c20.7967,0,39.92721,12.76811,39.92721,36.37338m-6.10933,0c0-21.77278-16.792-30.85792-33.81788-30.85792H557.74505v61.71587h17.30647c17.13279,0,33.81788-9.08514,33.81788-30.858" transform="translate(-224.48724 -104.00011)"/><path class="cls-1" d="M250.94964,499.51009h-26.327V434.31873h26.41381a34.05751,34.05751,0,0,1,13.164,2.56717,34.64638,34.64638,0,0,1,10.798,6.96789,32.66538,32.66538,0,0,1,7.2696,10.34809,31.52751,31.52751,0,0,1,0,25.38483,33.2694,33.2694,0,0,1-7.2696,10.34809,34.52005,34.52005,0,0,1-24.04886,9.57529m-.25723-52.39679H239.291v39.60327h11.40144a19.01386,19.01386,0,0,0,7.7428-1.589,20.88329,20.88329,0,0,0,6.36657-4.3192,19.28584,19.28584,0,0,0,3.88094-6.31577,18.83079,18.83079,0,0,0,0-15.15638,19.31875,19.31875,0,0,0-3.88094-6.31577,20.9175,20.9175,0,0,0-6.36657-4.31814,19.01354,19.01354,0,0,0-7.7428-1.589" transform="translate(-224.48724 -104.00011)"/><polygon class="cls-1" points="73.075 395.344 73.075 330.236 122.502 330.236 122.502 342.998 86.981 342.998 86.981 356.084 117.993 356.084 117.993 368.846 86.981 368.846 86.981 382.583 122.502 382.583 122.502 395.344 73.075 395.344"/><polygon class="cls-1" points="181.328 395.626 149.244 353.392 149.244 395.626 135.297 395.626 135.297 330.319 148.482 330.319 179.174 370.615 179.174 330.319 193.122 330.319 193.122 395.626 181.328 395.626"/><polygon class="cls-1" points="238.107 343.25 238.107 395.237 223.926 395.237 223.926 343.25 203.954 343.25 203.954 330.236 258.081 330.236 258.081 343.25 238.107 343.25"/><path class="cls-1" d="M541.9957,498.98341,535.89592,484.441H508.722l-6.23,14.54237h-14.645l28.19334-65.1289h12.87185l28.1934,65.1289Zm-19.75184-47.308-8.685,20.46857,17.23656-.13233Z" transform="translate(-224.48724 -104.00011)"/><polygon class="cls-1" points="342.872 395.156 342.872 330.319 356.738 330.319 356.738 382.432 389.451 382.432 389.451 395.156 342.872 395.156"/></svg>