<svg id="Layer_1" data-name="Layer 1" xmlns="http://www.w3.org/2000/svg" viewBox="0 0 783.9031 218.01798"><defs><style>.cls-1{fill:#004892;}.cls-2{fill:#00c2f3;}</style></defs><title>Vector Smart Object1</title><path class="cls-1" d="M28.99333,46.30542H89.49811V173.45314s.19614,37.26512,39.01889,37.26512,38.78582-37.26512,38.78582-37.26512V46.30542h41.88952v184.498s-19.03062,33.51992-80.50458,33.51992c-75.01485,0-99.69443-44.85937-99.69443-91.11022Z" transform="translate(-28.99333 -46.30539)"/><path class="cls-2" d="M306.63,46.3054H215.11818V261.01426c0-.15228,91.51178.23541,91.51178.23541s112.85456-2.243,112.85456-108.65936S306.63,46.3054,306.63,46.3054Zm39.072,131.37292c0,18.24835-15.42389,31.983-20.10364,31.983-9.3319,0-4.40289-12.71014-4.40289-20.35284,0-19.92285-11.22577-26.71906-11.51941-26.8935-.2937.17444-11.51947,6.97065-11.51947,26.8935,0,7.6427,4.929,20.35284-4.40289,20.35284-4.67975,0-20.10364-13.73468-20.10364-31.983,0-8.30731,1.41223-12.79327,1.41223-22.01434s-8.32007-20.91815-8.72265-36.05365c-.28217-10.60987,5.34436-15.61774,9.498-18.10993,4.66895-2.80133,17.08954-8.2,33.384.56848a.96032.96032,0,0,0,.90863,0c16.29449-8.76849,28.71508-3.36981,33.384-.56848,4.15369,2.49219,9.78021,7.50006,9.49805,18.10993-.40259,15.1355-8.72266,26.83252-8.72266,36.05365S345.70192,169.371,345.70192,177.67832Z" transform="translate(-28.99333 -46.30539)"/><path class="cls-1" d="M444.0308,128.66788v-44.06h5.64314v44.06c0,11.54674,10.71051,20.99976,22.57484,20.99976,11.97109,0,22.57484-9.55428,22.57484-20.99976v-44.06h5.64314v44.06c0,14.99047-12.61255,26.73994-28.218,26.73994C456.53659,155.40782,444.0308,143.45583,444.0308,128.66788Z" transform="translate(-28.99333 -46.30539)"/><path class="cls-1" d="M577.11537,84.55358v69.10048h-4.1892L524.992,92.9086v60.74546H519.455V84.55358h5.2905l46.63787,58.81562.08277-58.81562Z" transform="translate(-28.99333 -46.30539)"/><path class="cls-1" d="M597.60826,84.38743h5.63421v69.26663h-5.63421Z" transform="translate(-28.99333 -46.30539)"/><path class="cls-1" d="M672.2154,89.39292h-23.691v63.99376h-5.44876V89.39292H618.94626V84.60783H672.2154Z" transform="translate(-28.99333 -46.30539)"/><path class="cls-1" d="M693.27917,89.73028v26.69h39.2097v4.68422h-39.2097V148.233h44.0331v5.221H687.4971V84.60783h49.37673v5.12245Z" transform="translate(-28.99333 -46.30539)"/><path class="cls-1" d="M812.89643,118.96648c0,22.29821-18.173,34.26071-37.7159,34.26071H753.50047V84.60783h21.68006C794.82555,84.60783,812.89643,96.66827,812.89643,118.96648Zm-5.77086,0c0-20.56742-15.8626-29.14927-31.945-29.14927h-16.348v58.29854h16.348C791.36464,148.11575,807.12557,139.53389,807.12557,118.96648Z" transform="translate(-28.99333 -46.30539)"/><path class="cls-2" d="M469.028,225.3359H444.15851V163.75509h24.951a32.16085,32.16085,0,0,1,12.435,2.42459,32.73652,32.73652,0,0,1,10.2,6.58175,30.862,30.862,0,0,1,6.86774,9.77582,29.78876,29.78876,0,0,1,0,23.97819,31.42866,31.42866,0,0,1-6.86774,9.77581A32.60517,32.60517,0,0,1,469.028,225.3359Zm-.24347-49.49574H458.01511v37.41067h10.76944a17.97012,17.97012,0,0,0,7.31439-1.50105,19.75893,19.75893,0,0,0,6.01431-4.07971,18.2267,18.2267,0,0,0,3.66583-5.96593,17.7921,17.7921,0,0,0,0-14.31729,18.25273,18.25273,0,0,0-3.66583-5.96592,19.78133,19.78133,0,0,0-6.01431-4.07972A17.97012,17.97012,0,0,0,468.78455,175.84016Z" transform="translate(-28.99333 -46.30539)"/><path class="cls-2" d="M513.05948,225.179V163.67673h46.689v12.055h-33.5533v12.36149h29.29317v12.055H526.19522v12.97619h33.5533V225.179Z" transform="translate(-28.99333 -46.30539)"/><path class="cls-2" d="M615.317,225.44525l-30.30679-39.89447v39.89447H571.83435V163.75509h12.45573l28.99147,38.06363V163.75509h13.17588v61.69016Z" transform="translate(-28.99333 -46.30539)"/><path class="cls-2" d="M668.95212,175.96976v49.10832H655.55656V175.96976H636.68993v-12.293h51.12882v12.293Z" transform="translate(-28.99333 -46.30539)"/><path class="cls-2" d="M743.95551,224.83759l-5.76175-13.73627H712.52423l-5.88483,13.73627H692.80517L719.437,163.31665H731.5964l26.63178,61.52094ZM725.29766,180.15l-8.20442,19.335,16.28229-.12461Z" transform="translate(-28.99333 -46.30539)"/><path class="cls-2" d="M767.91463,225.00219v-61.2471h13.09762v49.22752h30.9016v12.01958Z" transform="translate(-28.99333 -46.30539)"/></svg>